<svg width="583" height="362" viewBox="0 0 583 362" fill="none" xmlns="http://www.w3.org/2000/svg">
<g clip-path="url(#clip0_503_9)">
<path d="M546.337 142.651C546.337 142.651 539.295 142.143 539.945 157.947C540.594 173.752 542.209 182.171 542.209 182.171C542.209 182.171 542 185.681 539.287 184.989C536.574 184.297 531.48 180.888 528.958 183.438C526.436 185.989 527.294 190.107 530.739 194.917C534.185 199.727 541.41 210.438 542.059 211.413C542.708 212.389 542.949 214.164 541.027 213.989C539.104 213.814 526.145 209.413 524.422 215.698C522.699 221.983 534.543 233.712 535.808 235.012C537.073 236.312 537.148 237.146 536.64 237.938C536.133 238.73 531.905 236.838 528.167 235.737C524.43 234.637 519.903 234.012 519.212 237.721C518.521 241.431 523.74 252.292 543.257 263.704L552.646 268.397L561.535 262.72C579.846 249.383 583.907 238.088 582.859 234.462C581.81 230.836 577.357 231.911 573.745 233.378C570.133 234.845 566.129 237.154 565.538 236.421C564.947 235.687 564.931 234.854 566.063 233.428C567.194 232.003 577.798 219.157 575.459 213.072C573.121 206.987 560.669 212.672 558.813 213.031C556.957 213.389 556.99 211.588 557.531 210.571C558.072 209.554 564.19 198.126 567.145 193.025C570.099 187.923 570.632 183.797 567.769 181.429C564.906 179.062 560.278 183.047 557.648 184.005C555.018 184.964 554.468 181.504 554.468 181.504C554.468 181.504 555.226 172.969 554.294 157.172C553.361 141.376 546.204 142.651 546.204 142.651" fill="#EBEBEB"/>
<path d="M546.886 156.805C546.894 156.916 546.894 157.028 546.886 157.139L546.961 158.106C547.019 158.939 547.103 160.231 547.211 161.84C547.427 165.083 547.71 169.776 548.043 175.569C548.684 187.173 549.441 203.203 550.207 220.908C550.973 238.613 551.697 254.66 552.271 266.255C552.571 272.048 552.804 276.733 552.97 279.992C553.054 281.609 553.112 282.86 553.154 283.735C553.154 284.144 553.154 284.469 553.154 284.702C553.159 284.813 553.159 284.924 553.154 285.035C553.154 285.035 553.154 284.927 553.154 284.702C553.154 284.477 553.154 284.152 553.079 283.735C553.02 282.901 552.929 281.609 552.821 280.001C552.604 276.766 552.33 272.073 551.988 266.271C551.339 254.668 550.59 238.638 549.816 220.925C549.042 203.211 548.334 187.19 547.752 175.586C547.461 169.801 547.219 165.108 547.061 161.849C546.978 160.24 546.911 158.981 546.87 158.114C546.87 157.697 546.87 157.372 546.87 157.139C546.87 156.905 546.886 156.805 546.886 156.805Z" fill="#E0E0E0"/>
<path d="M535.899 188.498C536.111 188.637 536.307 188.799 536.482 188.982C536.848 189.315 537.314 189.815 537.972 190.416C539.212 191.649 540.885 193.391 542.683 195.35C544.481 197.309 546.012 199.026 547.277 200.352L548.675 201.869C548.86 202.041 549.025 202.234 549.166 202.444C549.166 202.444 548.933 202.294 548.575 201.969C548.218 201.644 547.743 201.135 547.094 200.527C545.862 199.285 544.223 197.518 542.416 195.525L537.797 190.524C537.239 189.932 536.773 189.424 536.39 189.007C536.208 188.856 536.044 188.686 535.899 188.498Z" fill="#E0E0E0"/>
<path d="M550.09 202.169C550.024 202.102 553.461 198.501 557.764 194.125C562.067 189.748 565.621 186.264 565.688 186.339C565.754 186.414 562.359 190.007 558.022 194.383C553.686 198.759 550.165 202.244 550.09 202.169Z" fill="#E0E0E0"/>
<path d="M550.057 229.419C550.258 229.257 550.476 229.117 550.706 229.002L552.546 227.968C554.094 227.135 556.233 225.884 558.538 224.467C560.844 223.05 562.9 221.7 564.365 220.708L566.112 219.532C566.317 219.37 566.544 219.238 566.787 219.141C566.607 219.329 566.409 219.499 566.196 219.649C565.804 219.958 565.23 220.391 564.531 220.916C563.091 221.958 561.06 223.35 558.705 224.776C556.349 226.201 554.227 227.376 552.646 228.193C551.813 228.602 551.206 228.919 550.748 229.127C550.53 229.252 550.298 229.35 550.057 229.419Z" fill="#E0E0E0"/>
<path d="M534.501 219.858C534.728 219.937 534.946 220.04 535.151 220.166C535.558 220.383 536.141 220.708 536.815 221.108C538.247 221.942 540.211 223.067 542.367 224.351C544.523 225.634 546.462 226.851 547.86 227.685C548.559 228.127 549.117 228.477 549.525 228.735C549.735 228.85 549.928 228.993 550.099 229.16C549.871 229.083 549.654 228.979 549.45 228.852C549.042 228.635 548.459 228.31 547.785 227.91C546.362 227.076 544.398 225.951 542.242 224.667C540.086 223.384 538.147 222.167 536.749 221.333C536.05 220.9 535.492 220.541 535.084 220.283C534.676 220.024 534.485 219.908 534.501 219.858Z" fill="#E0E0E0"/>
<path d="M531.414 243.94C531.707 244.037 531.986 244.172 532.246 244.34L534.435 245.549C536.274 246.574 538.796 248.049 541.576 249.641C544.356 251.234 546.861 252.751 548.667 253.809L550.79 255.118C551.061 255.263 551.316 255.44 551.547 255.643C551.259 255.534 550.98 255.4 550.715 255.243L548.526 254.034C546.695 253.001 544.165 251.534 541.385 249.933C538.605 248.333 536.1 246.832 534.302 245.765L532.171 244.457C531.905 244.305 531.652 244.132 531.414 243.94Z" fill="#E0E0E0"/>
<path d="M551.139 255.252C551.395 255.037 551.674 254.853 551.971 254.701L554.252 253.309C556.183 252.134 558.838 250.5 561.743 248.616C564.648 246.732 567.194 244.974 569.042 243.681L571.239 242.156C571.496 241.95 571.775 241.774 572.072 241.631C571.837 241.86 571.587 242.071 571.323 242.264C570.823 242.656 570.099 243.215 569.192 243.89C567.378 245.232 564.831 247.041 561.934 248.891C559.038 250.742 556.366 252.376 554.443 253.493C553.461 254.051 552.662 254.493 552.096 254.793C551.791 254.973 551.471 255.126 551.139 255.252Z" fill="#E0E0E0"/>
<path d="M565.247 271.481H539.271L547.752 335.751H556.774L565.247 271.481Z" fill="#E0E0E0"/>
<path d="M540.619 279.375C540.619 279.375 540.619 279.467 540.76 279.609C540.93 279.806 541.144 279.96 541.384 280.059C541.838 280.215 542.321 280.266 542.797 280.207C543.273 280.148 543.73 279.98 544.131 279.717C545.18 279.142 546.095 278 547.46 277.5C549.016 276.998 550.694 277.03 552.229 277.591C553.797 278.125 555.292 278.85 556.682 279.75C557.841 280.48 559.048 281.129 560.294 281.693C561.145 282.075 562.044 282.336 562.966 282.468C563.217 282.505 563.47 282.522 563.724 282.518C563.89 282.518 563.982 282.518 563.982 282.518C562.75 282.328 561.551 281.966 560.419 281.443C559.202 280.846 558.021 280.178 556.882 279.442C555.477 278.51 553.958 277.762 552.363 277.216C550.736 276.627 548.958 276.606 547.319 277.158C546.624 277.439 545.983 277.837 545.421 278.333C544.95 278.749 544.452 279.133 543.931 279.484C543.571 279.733 543.162 279.901 542.731 279.977C542.3 280.053 541.858 280.036 541.434 279.926C541.129 279.798 540.851 279.611 540.619 279.375Z" fill="#F5F5F5"/>
<path d="M541.567 291.22C541.567 291.22 541.775 290.954 542.183 290.529C542.768 289.941 543.476 289.491 544.256 289.212C545.412 288.791 546.639 288.604 547.868 288.661C549.385 288.779 550.894 288.985 552.387 289.278C553.911 289.575 555.472 289.64 557.015 289.47C558.275 289.307 559.504 288.956 560.661 288.428C561.437 288.08 562.172 287.643 562.85 287.128C563.109 286.954 563.342 286.743 563.54 286.502C562.582 287.133 561.578 287.69 560.536 288.17C559.398 288.647 558.199 288.961 556.973 289.103C555.464 289.24 553.943 289.164 552.454 288.878C550.943 288.58 549.414 288.383 547.876 288.286C546.601 288.247 545.332 288.471 544.148 288.945C543.344 289.268 542.629 289.776 542.058 290.429C541.909 290.61 541.778 290.805 541.667 291.012C541.622 291.075 541.588 291.146 541.567 291.22Z" fill="#F5F5F5"/>
<path d="M562.309 297.556C562.097 297.386 561.854 297.259 561.593 297.181C560.9 296.925 560.174 296.771 559.438 296.722C558.349 296.653 557.257 296.715 556.183 296.906C554.976 297.106 553.686 297.439 552.313 297.739C551.044 298.034 549.745 298.18 548.443 298.173C547.386 298.147 546.344 297.92 545.371 297.506C544.484 297.094 543.691 296.504 543.041 295.772C543.14 296.025 543.29 296.255 543.482 296.447C543.973 297.008 544.573 297.462 545.247 297.781C546.244 298.252 547.325 298.518 548.426 298.564C549.762 298.597 551.096 298.457 552.396 298.148C553.778 297.856 555.068 297.514 556.25 297.314C557.294 297.112 558.357 297.023 559.421 297.047C560.401 297.095 561.371 297.266 562.309 297.556Z" fill="#F5F5F5"/>
<path d="M543.865 306.467C544.652 306.128 545.524 306.041 546.362 306.217C547.277 306.44 548.162 306.77 549 307.2C550.077 307.72 551.239 308.039 552.429 308.142C554.6 308.339 556.776 307.833 558.638 306.7C559.197 306.362 559.716 305.962 560.186 305.508C560.503 305.175 560.661 304.983 560.644 304.958C559.956 305.495 559.236 305.991 558.488 306.442C556.651 307.457 554.553 307.901 552.463 307.717C550.007 307.584 548.118 306.108 546.412 305.917C545.756 305.802 545.082 305.86 544.456 306.083C544.04 306.258 543.848 306.45 543.865 306.467Z" fill="#F5F5F5"/>
<path d="M545.313 318.804C546.058 318.823 546.797 318.675 547.477 318.37C548.784 317.937 550.398 316.937 552.288 316.186C553.163 315.827 554.097 315.629 555.043 315.603C555.812 315.604 556.571 315.778 557.265 316.111C557.895 316.45 558.443 316.922 558.871 317.495C558.836 317.296 558.75 317.109 558.622 316.953C558.311 316.492 557.894 316.112 557.407 315.845C556.682 315.451 555.875 315.234 555.051 315.211C554.052 315.213 553.063 315.408 552.138 315.786C550.182 316.57 548.617 317.604 547.369 318.095C546.12 318.587 545.305 318.737 545.313 318.804Z" fill="#F5F5F5"/>
<path d="M546.586 324.547C547.113 324.803 547.674 324.982 548.251 325.081C549.604 325.408 550.978 325.64 552.363 325.773C553.745 325.911 555.136 325.952 556.524 325.898C557.103 325.916 557.681 325.845 558.239 325.689C558.239 325.564 555.609 325.689 552.413 325.348C549.217 325.006 546.62 324.422 546.586 324.547Z" fill="#F5F5F5"/>
<path d="M573.046 336.601C573.046 336.726 444.753 336.817 286.539 336.817C128.326 336.817 0 336.726 0 336.601C0 336.476 128.267 336.384 286.539 336.384C444.812 336.384 573.046 336.484 573.046 336.601Z" fill="#263238"/>
<path d="M215.851 0H387.607V163.832C387.607 167.418 386.185 170.857 383.653 173.393C381.121 175.929 377.687 177.353 374.107 177.353H215.851V0Z" fill="#EBEBEB"/>
<path d="M373.424 52.7825C373.424 53.141 342.387 53.4327 304.101 53.4327C265.815 53.4327 234.761 53.141 234.761 52.7825C234.761 52.4241 265.798 52.1323 304.101 52.1323C342.404 52.1323 373.424 52.4241 373.424 52.7825Z" fill="#455A64"/>
<path d="M304.917 64.8111C304.917 65.1695 289.586 65.4613 270.667 65.4613C251.749 65.4613 236.409 65.1695 236.409 64.8111C236.409 64.4526 251.749 64.1609 270.667 64.1609C289.586 64.1609 304.917 64.436 304.917 64.8111Z" fill="#455A64"/>
<path d="M332.3 63.6858C332.3 64.0443 328.238 64.336 323.228 64.336C318.217 64.336 314.156 64.0443 314.156 63.6858C314.156 63.3274 318.217 63.0356 323.228 63.0356C328.238 63.0356 332.3 63.3274 332.3 63.6858Z" fill="#455A64"/>
<path d="M377.128 62.9439C377.128 63.3023 369.088 63.5941 359.167 63.5941C349.246 63.5941 341.206 63.3023 341.206 62.9439C341.206 62.5855 349.246 62.2937 359.167 62.2937C369.088 62.2937 377.128 62.5855 377.128 62.9439Z" fill="#455A64"/>
<path d="M299.199 76.2896C299.199 76.6564 284.775 76.9481 266.98 76.9481C249.185 76.9481 234.761 76.6564 234.761 76.2896C234.761 75.9228 249.185 75.6394 266.98 75.6394C284.775 75.6394 299.199 75.9312 299.199 76.2896Z" fill="#455A64"/>
<path d="M377.128 75.9644C377.128 76.3228 361.381 76.6146 341.955 76.6146C322.529 76.6146 306.773 76.3228 306.773 75.9644C306.773 75.606 322.52 75.3142 341.955 75.3142C361.389 75.3142 377.128 75.5976 377.128 75.9644Z" fill="#455A64"/>
<path d="M377.128 87.5345C377.128 87.8929 370.12 88.1847 361.464 88.1847C352.808 88.1847 345.8 87.8929 345.8 87.5345C345.8 87.1761 352.816 86.876 361.464 86.876C370.112 86.876 377.128 87.1677 377.128 87.5345Z" fill="#455A64"/>
<path d="M312.324 39.9036C312.324 40.2621 295.329 40.5538 274.371 40.5538C253.414 40.5538 236.409 40.2621 236.409 39.9036C236.409 39.5452 253.405 39.2534 274.371 39.2534C295.337 39.2534 312.324 39.5452 312.324 39.9036Z" fill="#E8505B"/>
<path d="M417.911 99.3381H85.3782C78.6808 99.3381 73.2515 104.776 73.2515 111.483V323.489C73.2515 330.196 78.6808 335.634 85.3782 335.634H417.911C424.608 335.634 430.038 330.196 430.038 323.489V111.483C430.038 104.776 424.608 99.3381 417.911 99.3381Z" fill="#263238"/>
<path d="M58.836 318.162H445.377V323.997C445.377 327.932 443.817 331.706 441.038 334.489C438.26 337.271 434.492 338.835 430.562 338.835H73.6428C69.7135 338.835 65.9453 337.271 63.1669 334.489C60.3885 331.706 58.8276 327.932 58.8276 323.997V318.162H58.836Z" fill="#263238"/>
<path d="M419.959 108.724H83.3308V308.276H419.959V108.724Z" fill="#455A64"/>
<path d="M216.975 318.154H218.481H222.876L239.181 318.087L293.722 317.97H294.122L293.922 318.32L291.758 322.038L289.469 325.964L289.402 326.081H289.269L221.769 325.956H221.711V325.906L218.173 320.146L217.283 318.687L217 318.204C217 318.204 217.125 318.379 217.333 318.712L218.282 320.171C219.114 321.463 220.312 323.347 221.885 325.789L221.794 325.739L289.294 325.614L289.095 325.731L291.383 321.805L293.547 318.087L293.747 318.437L239.431 318.32L223.017 318.22H218.556H217.383L216.975 318.154Z" fill="#455A64"/>
<path d="M430.038 318.154C430.038 318.279 350.136 318.37 251.657 318.37C153.178 318.37 73.26 318.279 73.26 318.154C73.26 318.028 153.112 317.937 251.657 317.937C350.203 317.937 430.038 318.037 430.038 318.154Z" fill="#455A64"/>
<path d="M338.958 68.8706C341.607 68.8706 344.148 69.9245 346.021 71.8004C347.894 73.6763 348.946 76.2206 348.946 78.8736V99.3547H319.149V80.4407C319.148 78.921 319.446 77.416 320.027 76.0117C320.607 74.6075 321.458 73.3316 322.531 72.257C323.604 71.1824 324.878 70.3302 326.28 69.7491C327.682 69.168 329.184 68.8695 330.702 68.8706H338.958Z" fill="#263238"/>
<path d="M338.958 68.8707C338.958 68.9958 310.843 69.0624 276.161 69.0374C241.478 69.0124 213.363 68.879 213.363 68.7623C213.363 68.6456 241.47 68.5706 276.161 68.5956C310.851 68.6206 338.958 68.754 338.958 68.8707Z" fill="#263238"/>
<path d="M338.725 68.8456L326.291 68.7622L308.238 68.8706H175.617C170.209 68.8706 165.023 71.0223 161.198 74.8523C157.374 78.6823 155.226 83.8769 155.226 89.2934V308.751H326.981V80.0656C327.489 68.8706 338.725 68.8456 338.725 68.8456Z" fill="#FAFAFA"/>
<path d="M338.725 68.8455L235.161 69.0706H183.383H176.907C175.825 69.0706 174.76 69.0706 173.695 69.1623C172.636 69.2749 171.587 69.4672 170.557 69.7375C167.448 70.5406 164.577 72.0807 162.187 74.2278C159.797 76.3749 157.958 79.0661 156.824 82.0745C156.657 82.583 156.424 83.0664 156.308 83.5833L155.917 85.1337C155.713 86.1816 155.588 87.2432 155.542 88.3097C155.451 92.6026 155.542 96.9456 155.542 101.264L155.684 308.701L155.267 308.284L327.023 308.401L326.723 308.701L326.807 185.33L326.906 123.645L326.965 92.8027V85.092V81.2326C326.94 80.5897 326.965 79.9459 327.04 79.307C327.084 78.6653 327.187 78.0292 327.348 77.4064C327.883 74.8587 329.372 72.6128 331.509 71.1295C332.563 70.3914 333.73 69.8284 334.963 69.4624C336.185 69.0933 337.45 68.8859 338.725 68.8455ZM338.725 68.8455C337.441 68.9029 336.171 69.13 334.947 69.5207C333.718 69.8921 332.555 70.4547 331.501 71.1879C329.38 72.6772 327.909 74.9232 327.389 77.4648C327.231 78.0848 327.13 78.7183 327.089 79.357C327.021 79.9964 326.999 80.6399 327.023 81.2826V92.8444L327.089 123.687L327.181 185.372L327.264 308.742V309.051H326.956L155.201 309.159H154.793V308.742L154.926 101.305C154.926 96.9789 154.926 92.6693 154.984 88.3264C155.033 87.232 155.161 86.1427 155.367 85.067L155.783 83.4832C155.9 82.9497 156.141 82.4496 156.308 81.9328C157.474 78.8488 159.364 76.0909 161.818 73.8916C164.272 71.6923 167.218 70.116 170.407 69.2956C171.465 69.0218 172.542 68.8268 173.628 68.7121C174.718 68.6538 175.809 68.5954 176.882 68.6204H183.358H235.136L338.725 68.8455Z" fill="#263238"/>
<path d="M181.102 108.357H211.066L211.116 118.41H209.676C209.21 114.815 207.867 112.381 205.647 111.108C203.896 110.3 201.982 109.909 200.054 109.966V136.224C200.054 138.066 200.37 139.283 201.011 139.884C201.652 140.484 202.984 140.784 205.015 140.784V142.051H187.278V140.784C189.217 140.784 190.516 140.475 191.148 139.867C191.781 139.258 192.114 138.05 192.114 136.224V109.966C190.187 109.92 188.275 110.311 186.521 111.108C184.14 112.417 182.792 114.843 182.484 118.41H181.052L181.102 108.357Z" fill="#E8505B"/>
<path d="M303.41 110.658C303.41 111.016 286.881 111.308 266.489 111.308C246.098 111.308 229.568 111.016 229.568 110.658C229.568 110.3 246.098 110.008 266.489 110.008C286.881 110.008 303.41 110.266 303.41 110.658Z" fill="#E8505B"/>
<path d="M259.598 122.445C259.598 122.803 253.205 123.095 245.323 123.095C237.441 123.095 231.049 122.803 231.049 122.445C231.049 122.086 237.441 121.786 245.323 121.786C253.205 121.786 259.598 122.078 259.598 122.445Z" fill="#455A64"/>
<path d="M223.608 158.489C223.608 158.848 211.473 159.139 196.5 159.139C181.527 159.139 169.383 158.848 169.383 158.489C169.383 158.131 181.518 157.839 196.5 157.839C211.482 157.839 223.608 158.172 223.608 158.489Z" fill="#455A64"/>
<path d="M285.016 158.489C285.016 158.848 272.873 159.139 257.908 159.139C242.943 159.139 230.791 158.848 230.791 158.489C230.791 158.131 242.926 157.839 257.908 157.839C272.889 157.839 285.016 158.172 285.016 158.489Z" fill="#E8505B"/>
<path d="M223.608 168.117C223.608 168.475 211.473 168.767 196.5 168.767C181.527 168.767 169.383 168.475 169.383 168.117C169.383 167.759 181.518 167.467 196.5 167.467C211.482 167.467 223.608 167.759 223.608 168.117Z" fill="#455A64"/>
<path d="M223.608 177.745C223.608 178.103 211.473 178.395 196.5 178.395C181.527 178.395 169.383 178.103 169.383 177.745C169.383 177.387 181.518 177.086 196.5 177.086C211.482 177.086 223.608 177.345 223.608 177.745Z" fill="#E8505B"/>
<path d="M259.598 142.051C259.598 142.409 253.205 142.701 245.323 142.701C237.441 142.701 231.049 142.409 231.049 142.051C231.049 141.692 237.441 141.401 245.323 141.401C253.205 141.401 259.598 141.692 259.598 142.051Z" fill="#455A64"/>
<path d="M309.12 158.489C309.12 158.848 304.858 159.139 299.607 159.139C294.355 159.139 290.085 158.848 290.085 158.489C290.085 158.131 294.346 157.839 299.607 157.839C304.867 157.839 309.12 158.172 309.12 158.489Z" fill="#455A64"/>
<path d="M314.214 122.445C314.214 122.803 303.244 123.095 289.719 123.095C276.194 123.095 265.224 122.803 265.224 122.445C265.224 122.086 276.185 121.786 289.719 121.786C303.252 121.786 314.214 122.078 314.214 122.445Z" fill="#455A64"/>
<path d="M312 131.831C312 132.19 293.88 132.481 271.525 132.481C249.169 132.481 231.049 132.19 231.049 131.831C231.049 131.473 249.169 131.181 271.525 131.181C293.88 131.181 312 131.498 312 131.831Z" fill="#455A64"/>
<path d="M309.12 168.117C309.12 168.475 291.583 168.767 270.001 168.767C248.419 168.767 230.833 168.475 230.833 168.117C230.833 167.759 248.361 167.467 270.001 167.467C291.641 167.467 309.12 167.759 309.12 168.117Z" fill="#455A64"/>
<path d="M309.12 195.984C309.12 196.342 292.665 196.634 272.373 196.634C252.082 196.634 235.619 196.342 235.619 195.984C235.619 195.625 252.073 195.333 272.373 195.333C292.674 195.333 309.12 195.625 309.12 195.984Z" fill="#E8505B"/>
<path d="M309.12 205.353C309.12 205.712 292.665 206.003 272.373 206.003C252.082 206.003 235.619 205.712 235.619 205.353C235.619 204.995 252.073 204.703 272.373 204.703C292.674 204.703 309.12 204.995 309.12 205.353Z" fill="#455A64"/>
<path d="M309.12 214.723C309.12 215.081 292.665 215.373 272.373 215.373C252.082 215.373 235.619 215.081 235.619 214.723C235.619 214.364 252.073 214.073 272.373 214.073C292.674 214.073 309.12 214.364 309.12 214.723Z" fill="#455A64"/>
<path d="M309.12 224.092C309.12 224.451 292.665 224.742 272.373 224.742C252.082 224.742 235.619 224.451 235.619 224.092C235.619 223.734 252.073 223.442 272.373 223.442C292.674 223.442 309.12 223.734 309.12 224.092Z" fill="#455A64"/>
<path d="M277.933 233.461C277.933 233.637 275.561 233.803 271.733 233.92C267.904 234.037 262.577 234.112 256.751 234.112C250.925 234.112 245.615 234.037 241.77 233.92C237.924 233.803 235.577 233.637 235.577 233.461C235.577 233.286 237.941 233.12 241.77 233.003C245.598 232.886 250.925 232.811 256.751 232.811C262.577 232.811 267.879 232.886 271.733 233.003C275.586 233.12 277.933 233.278 277.933 233.461Z" fill="#455A64"/>
<path d="M295.803 178.245C295.803 178.603 281.654 178.895 264.175 178.895C246.697 178.895 232.547 178.603 232.547 178.245C232.547 177.886 246.697 177.595 264.175 177.595C281.654 177.595 295.803 177.886 295.803 178.245Z" fill="#455A64"/>
<path d="M222.327 197.042L226.23 269.364L155.617 278.217L155.567 196.434L222.327 197.042Z" fill="#E0E0E0"/>
<path d="M130.91 192.04L130.416 268.761L226.229 269.381L226.724 192.659L130.91 192.04Z" fill="#F5F5F5"/>
<path d="M134.183 196.888L133.751 263.948L222.831 264.524L223.263 197.464L134.183 196.888Z" fill="#E8505B"/>
<g opacity="0.2">
<path d="M133.744 263.937L165.13 222.458L184.232 248.658L197.399 234.804L222.826 264.513L133.744 263.937Z" fill="black"/>
</g>
<g opacity="0.2">
<path d="M192.613 217.524C192.605 218.914 192.185 220.27 191.407 221.421C190.629 222.572 189.527 223.467 188.241 223.991C186.956 224.515 185.544 224.645 184.184 224.365C182.825 224.085 181.578 223.407 180.603 222.418C179.628 221.429 178.968 220.172 178.706 218.807C178.445 217.441 178.593 216.029 179.133 214.748C179.673 213.468 180.58 212.376 181.74 211.612C182.899 210.848 184.259 210.445 185.647 210.455C186.568 210.46 187.479 210.647 188.327 211.006C189.176 211.364 189.946 211.886 190.593 212.543C191.24 213.199 191.751 213.977 192.098 214.832C192.445 215.686 192.62 216.601 192.613 217.524Z" fill="black"/>
</g>
<path d="M235.452 287.461C235.452 287.755 235.365 288.041 235.203 288.285C235.04 288.529 234.808 288.72 234.538 288.832C234.267 288.944 233.969 288.974 233.682 288.916C233.394 288.859 233.13 288.718 232.923 288.51C232.716 288.303 232.575 288.038 232.518 287.751C232.461 287.463 232.49 287.164 232.602 286.893C232.714 286.622 232.904 286.39 233.148 286.227C233.391 286.064 233.678 285.977 233.971 285.977C234.166 285.976 234.359 286.014 234.539 286.088C234.719 286.162 234.883 286.271 235.021 286.409C235.159 286.547 235.268 286.711 235.342 286.892C235.416 287.072 235.453 287.266 235.452 287.461Z" fill="#263238"/>
<path d="M244.25 287.461C244.25 287.755 244.163 288.041 244 288.285C243.837 288.529 243.606 288.72 243.335 288.832C243.064 288.944 242.766 288.974 242.479 288.916C242.192 288.859 241.928 288.718 241.721 288.51C241.513 288.303 241.372 288.038 241.315 287.751C241.258 287.463 241.287 287.164 241.399 286.893C241.512 286.622 241.701 286.39 241.945 286.227C242.189 286.064 242.475 285.977 242.768 285.977C243.161 285.977 243.538 286.134 243.816 286.412C244.094 286.69 244.25 287.068 244.25 287.461Z" fill="#263238"/>
<path d="M253.039 287.461C253.039 287.755 252.952 288.041 252.789 288.285C252.626 288.529 252.395 288.72 252.124 288.832C251.854 288.944 251.556 288.974 251.268 288.916C250.981 288.859 250.717 288.718 250.51 288.51C250.303 288.303 250.162 288.038 250.104 287.751C250.047 287.463 250.077 287.164 250.189 286.893C250.301 286.622 250.491 286.39 250.734 286.227C250.978 286.064 251.264 285.977 251.557 285.977C251.95 285.977 252.327 286.134 252.605 286.412C252.883 286.69 253.039 287.068 253.039 287.461Z" fill="#263238"/>
<path d="M285.432 252.984C285.432 253.343 273.289 253.634 258.316 253.634C243.342 253.634 231.199 253.343 231.199 252.984C231.199 252.626 243.342 252.334 258.316 252.334C273.289 252.334 285.432 252.626 285.432 252.984Z" fill="#E8505B"/>
<path d="M309.536 262.612C309.536 262.97 291.999 263.262 270.367 263.262C248.736 263.262 231.199 262.97 231.199 262.612C231.199 262.253 248.736 261.962 270.367 261.962C291.999 261.962 309.536 262.253 309.536 262.612Z" fill="#455A64"/>
<path d="M483.871 279.732L483.41 325.946L541.122 326.524L541.584 280.31L483.871 279.732Z" fill="#F5F5F5"/>
<path d="M483.845 281.586L483.585 321.98L537.243 322.328L537.503 281.933L483.845 281.586Z" fill="#E8505B"/>
<path opacity="0.2" d="M483.572 321.971L502.474 296.98L513.985 312.76L521.917 304.416L537.231 322.313L483.572 321.971Z" fill="black"/>
<g opacity="0.2">
<path d="M519.037 294.046C519.034 294.884 518.783 295.702 518.315 296.397C517.847 297.092 517.184 297.632 516.41 297.949C515.636 298.266 514.785 298.346 513.965 298.179C513.145 298.012 512.393 297.604 511.805 297.009C511.216 296.414 510.817 295.657 510.658 294.834C510.499 294.012 510.587 293.16 510.912 292.388C511.236 291.616 511.782 290.957 512.48 290.495C513.178 290.034 513.998 289.79 514.834 289.795C515.954 289.802 517.026 290.253 517.814 291.05C518.602 291.847 519.042 292.925 519.037 294.046Z" fill="black"/>
</g>
<path d="M473.415 273.839L473.117 320.052L530.828 320.425L531.126 274.212L473.415 273.839Z" fill="#F5F5F5"/>
<path d="M475.393 276.753L475.133 317.148L528.791 317.495L529.051 277.1L475.393 276.753Z" fill="#E8505B"/>
<path opacity="0.2" d="M475.108 317.145L494.01 292.154L505.521 307.934L513.452 299.59L528.767 317.487L475.108 317.145Z" fill="black"/>
<g opacity="0.2">
<path d="M510.572 289.187C510.567 290.026 510.313 290.845 509.843 291.539C509.372 292.234 508.706 292.772 507.929 293.087C507.152 293.402 506.3 293.478 505.479 293.306C504.659 293.134 503.908 292.723 503.322 292.123C502.736 291.523 502.341 290.762 502.188 289.937C502.034 289.112 502.129 288.26 502.46 287.489C502.791 286.718 503.343 286.062 504.047 285.606C504.75 285.15 505.573 284.914 506.411 284.927C507.525 284.945 508.587 285.402 509.366 286.2C510.146 286.997 510.579 288.071 510.572 289.187Z" fill="black"/>
</g>
<path d="M465.883 269.854L465.585 316.067L523.297 316.44L523.595 270.227L465.883 269.854Z" fill="#F5F5F5"/>
<path d="M467.845 272.768L467.585 313.162L521.243 313.509L521.503 273.115L467.845 272.768Z" fill="#E8505B"/>
<path opacity="0.2" d="M467.575 313.152L486.477 288.161L497.988 303.949L505.911 295.605L521.234 313.502L467.575 313.152Z" fill="black"/>
<g opacity="0.2">
<path d="M503.032 285.194C503.027 286.033 502.773 286.852 502.302 287.546C501.832 288.241 501.166 288.779 500.389 289.094C499.612 289.409 498.759 289.485 497.939 289.313C497.119 289.142 496.368 288.73 495.782 288.13C495.196 287.53 494.801 286.769 494.647 285.944C494.494 285.119 494.588 284.267 494.919 283.496C495.25 282.725 495.803 282.07 496.506 281.613C497.21 281.157 498.032 280.921 498.87 280.934C499.984 280.952 501.047 281.409 501.826 282.207C502.605 283.004 503.039 284.078 503.032 285.194Z" fill="black"/>
</g>
<path d="M459.315 275.859L458.854 322.073L516.566 322.651L517.027 276.437L459.315 275.859Z" fill="#F5F5F5"/>
<path d="M459.393 277.734L459.132 318.129L512.79 318.476L513.051 278.081L459.393 277.734Z" fill="#455A64"/>
<path opacity="0.2" d="M459.111 318.12L478.013 293.129L489.523 308.909L497.447 300.565L512.77 318.462L459.111 318.12Z" fill="black"/>
<g opacity="0.2">
<path d="M494.6 290.162C494.595 291.001 494.341 291.82 493.871 292.514C493.4 293.209 492.734 293.748 491.957 294.062C491.18 294.377 490.328 294.453 489.507 294.282C488.687 294.11 487.936 293.698 487.35 293.098C486.764 292.498 486.369 291.737 486.216 290.912C486.062 290.087 486.157 289.235 486.488 288.464C486.819 287.693 487.371 287.038 488.074 286.582C488.778 286.126 489.601 285.889 490.439 285.902C491.554 285.916 492.619 286.371 493.399 287.17C494.179 287.969 494.611 289.045 494.6 290.162Z" fill="black"/>
</g>
<path d="M548.426 291.987H515.108V336.609H548.426V291.987Z" fill="#263238"/>
<path d="M451.32 291.987V336.601H517.905V291.987H451.32ZM491.729 302.54H477.58C476.767 302.54 475.988 302.217 475.414 301.642C474.84 301.067 474.517 300.286 474.517 299.473C474.517 298.659 474.84 297.879 475.414 297.304C475.988 296.728 476.767 296.405 477.58 296.405H491.729C492.541 296.405 493.32 296.728 493.895 297.304C494.469 297.879 494.792 298.659 494.792 299.473C494.792 300.286 494.469 301.067 493.895 301.642C493.32 302.217 492.541 302.54 491.729 302.54Z" fill="#E8505B"/>
<path d="M408.082 331.941L346.116 328.14C345.725 327.248 345.467 326.731 345.467 326.731L328.671 327.073L323.203 326.731L322.986 327.181L266.605 328.307C255.361 328.307 243.542 335.175 243.542 343.953C243.401 352.289 247.446 361.375 257.517 361.167L334.331 360.908L411.153 361.167C421.224 361.375 423.887 355.331 423.904 348.071C425.077 334.634 416.671 332.049 408.082 331.941Z" fill="#455A64"/>
<path d="M264.566 361.175H264.933H266.023L270.184 361.133L285.649 361.066L337.252 361L337.036 361.225C336.927 359.557 336.819 357.732 336.703 355.915C336.47 352.197 336.245 348.529 336.029 345.078L336.22 345.278L288.695 339.893L274.612 338.284L270.817 337.826L269.835 337.701C269.725 337.692 269.616 337.672 269.51 337.643H269.843L270.825 337.734L274.629 338.109L288.728 339.593L336.262 344.745H336.436V344.92C336.661 348.404 336.886 352.064 337.119 355.756C337.235 357.574 337.344 359.382 337.452 361.066V361.3H337.227L285.624 361.225L270.16 361.158H265.998H264.908L264.566 361.175Z" fill="#263238"/>
<path d="M280.405 339.101C280.355 339.16 279.573 338.535 278.233 337.709C276.468 336.634 274.571 335.793 272.59 335.209C270.604 334.642 268.553 334.339 266.489 334.308C264.907 334.308 263.925 334.408 263.917 334.308C264.135 334.221 264.365 334.167 264.599 334.15C265.225 334.053 265.856 333.998 266.489 333.983C270.718 333.86 274.88 335.057 278.399 337.409C278.929 337.759 279.435 338.143 279.914 338.56C280.247 338.901 280.422 339.06 280.405 339.101Z" fill="#263238"/>
<path d="M403.271 335.801C403.271 335.917 391.077 338.876 375.979 342.411C360.881 345.945 348.605 348.713 348.58 348.596C348.555 348.479 360.773 345.52 375.879 341.986C390.986 338.451 403.246 335.726 403.271 335.801Z" fill="#263238"/>
<path d="M392.942 334.6C391.267 335.195 389.66 335.967 388.148 336.901C386.721 337.958 385.418 339.171 384.261 340.519C384.446 340.015 384.729 339.553 385.093 339.16C386.71 337.128 388.909 335.639 391.394 334.892C391.888 334.703 392.412 334.604 392.942 334.6Z" fill="#263238"/>
<path d="M369.87 264.137L389.504 298.364C390.698 300.445 391.358 302.789 391.426 305.188C391.495 307.587 390.969 309.965 389.896 312.11C388.658 314.586 386.74 316.657 384.368 318.079C381.995 319.5 379.267 320.215 376.504 320.138L346.357 319.304L345.567 308.326L372.109 303.216L354.214 272.19L369.87 264.137Z" fill="#FFBE9D"/>
<path d="M296.71 322.705L324.426 330.057L325.034 321.721L299.49 306.867L318.15 272.19L302.495 264.137L282.861 298.364C281.745 300.438 281.101 302.733 280.972 305.084C280.843 307.436 281.234 309.787 282.116 311.971C282.998 314.154 284.35 316.116 286.076 317.716C287.801 319.316 289.858 320.516 292.099 321.23L296.71 322.705Z" fill="#FFBE9D"/>
<path d="M361.539 286.111L380.482 276.108C378.151 271.375 375.437 266.842 372.367 262.553C366.499 254.426 357.386 248.749 347.065 246.582L325.275 246.84C322.614 247.076 319.998 247.679 317.501 248.633V248.549C305.674 251.158 292.532 276.991 292.532 276.991L309.827 286.086L310.21 288.803C310.717 292.404 312.282 295.773 314.705 298.481L309.711 331.549L365.592 332.708L358.493 309.051L361.539 286.111Z" fill="#E8505B"/>
<path d="M315.196 298.664C314.891 298.491 314.611 298.278 314.363 298.031C313.645 297.398 313.005 296.682 312.457 295.897C310.661 293.254 309.835 290.07 310.119 286.886C310.401 285.185 310.83 283.511 311.4 281.884C311.9 280.376 312.416 279.042 312.857 277.925C313.298 276.808 313.689 275.916 313.956 275.307C314.077 274.98 314.239 274.669 314.438 274.382C314.362 274.722 314.253 275.054 314.114 275.374C313.856 276.083 313.531 276.975 313.14 278.033C312.749 279.092 312.258 280.534 311.783 282.009C311.235 283.622 310.823 285.279 310.551 286.961C310.412 288.643 310.573 290.336 311.026 291.962C311.384 293.299 311.945 294.573 312.69 295.738C313.443 296.782 314.281 297.761 315.196 298.664Z" fill="#263238"/>
<path d="M306.806 339.535L303.643 302.649H371.793L367.282 339.993L306.806 339.535Z" fill="#263238"/>
<path d="M342.063 322.322C342.064 323.183 341.811 324.025 341.334 324.742C340.857 325.459 340.179 326.018 339.384 326.348C338.59 326.679 337.716 326.766 336.872 326.598C336.029 326.43 335.254 326.016 334.646 325.407C334.038 324.798 333.624 324.022 333.456 323.177C333.289 322.332 333.376 321.456 333.706 320.661C334.035 319.865 334.594 319.186 335.309 318.708C336.025 318.231 336.866 317.977 337.726 317.979C338.876 317.979 339.979 318.436 340.793 319.251C341.606 320.065 342.063 321.17 342.063 322.322Z" fill="#FAFAFA"/>
<path d="M336.528 346.745L348.097 348.363V360.958L337.46 360.683L336.528 346.745Z" fill="#FFBE9D"/>
<path d="M348.114 348.354H353.315C354.327 348.354 355.32 348.622 356.195 349.129L358.934 350.73C360.483 351.59 362.084 352.353 363.728 353.014C366.89 354.031 372.209 355.406 373.333 356.273C376.529 358.774 375.555 361.667 373.799 361.967C372.259 362.242 348.105 360.966 348.105 360.966L348.114 348.354Z" fill="#E8505B"/>
<path d="M356.645 359.899C356.241 358.856 356.052 357.742 356.087 356.623C355.976 355.499 356.101 354.363 356.453 353.289C356.537 354.382 356.559 355.478 356.52 356.573C356.627 357.679 356.669 358.789 356.645 359.899Z" fill="#263238"/>
<path d="M359.117 359.841C358.845 357.846 358.861 355.821 359.167 353.831C359.369 354.82 359.433 355.833 359.359 356.84C359.418 357.847 359.337 358.857 359.117 359.841Z" fill="#263238"/>
<path d="M362.03 360.341C361.582 358.309 361.419 356.225 361.547 354.148C361.84 355.147 361.995 356.182 362.005 357.224C362.155 358.257 362.164 359.306 362.03 360.341Z" fill="#263238"/>
<path d="M354.397 356.565C354.026 356.516 353.666 356.403 353.332 356.232C352.386 355.834 351.507 355.291 350.727 354.623C350.486 354.414 350.236 354.181 349.986 353.923C349.705 353.658 349.479 353.341 349.32 352.989C349.23 352.778 349.196 352.547 349.223 352.319C349.249 352.091 349.334 351.873 349.47 351.689C349.63 351.493 349.86 351.367 350.111 351.338C350.35 351.312 350.591 351.338 350.819 351.413C351.725 351.74 352.523 352.313 353.122 353.069C353.722 353.824 354.099 354.732 354.212 355.69C354.326 356.648 354.17 357.619 353.763 358.493C353.356 359.368 352.714 360.112 351.909 360.641C351.549 360.9 351.142 361.084 350.71 361.183C350.489 361.237 350.258 361.237 350.036 361.183C349.922 361.145 349.816 361.084 349.726 361.004C349.635 360.924 349.563 360.826 349.512 360.716C349.438 360.519 349.413 360.307 349.439 360.098C349.465 359.888 349.541 359.689 349.662 359.516C349.843 359.208 350.067 358.927 350.327 358.682C351.068 357.968 351.938 357.402 352.891 357.015C353.228 356.852 353.592 356.75 353.965 356.715C353.965 356.715 353.598 356.865 352.958 357.174C352.058 357.609 351.241 358.198 350.544 358.916C350.311 359.135 350.112 359.388 349.953 359.666C349.868 359.793 349.812 359.938 349.791 360.089C349.769 360.241 349.782 360.395 349.828 360.541C349.912 360.678 350.042 360.781 350.193 360.833C350.345 360.884 350.51 360.881 350.66 360.825C351.035 360.729 351.389 360.562 351.701 360.333C352.437 359.84 353.023 359.153 353.394 358.348C353.766 357.543 353.908 356.651 353.806 355.77C353.703 354.889 353.36 354.054 352.814 353.355C352.268 352.657 351.54 352.124 350.71 351.814C350.56 351.739 350.39 351.712 350.224 351.736C350.057 351.759 349.902 351.833 349.778 351.947C349.683 352.079 349.624 352.234 349.606 352.396C349.589 352.559 349.613 352.723 349.678 352.872C349.996 353.464 350.429 353.986 350.952 354.406C351.986 355.295 353.147 356.022 354.397 356.565Z" fill="#263238"/>
<path d="M373.799 361.958C374.063 361.725 374.278 361.442 374.431 361.125C374.583 360.691 374.632 360.227 374.572 359.771C374.513 359.315 374.348 358.88 374.09 358.499C373.341 357.334 372.202 356.474 370.877 356.073C369.404 355.54 367.656 355.29 365.883 354.731C362.854 353.821 359.961 352.503 357.286 350.813C356.27 350.163 355.48 349.58 354.947 349.146C354.657 348.945 354.391 348.71 354.156 348.446C354.47 348.603 354.768 348.79 355.047 349.005C355.604 349.38 356.412 349.921 357.452 350.538C360.142 352.135 363.015 353.4 366.008 354.306C367.748 354.848 369.487 355.14 371.002 355.682C372.397 356.135 373.58 357.08 374.331 358.341C374.595 358.763 374.752 359.243 374.789 359.739C374.827 360.236 374.744 360.734 374.548 361.192C374.416 361.426 374.234 361.628 374.015 361.783C373.915 361.933 373.807 361.975 373.799 361.958Z" fill="#263238"/>
<path d="M365.917 255.643C365.927 255.704 365.927 255.766 365.917 255.826V256.343C365.875 256.827 365.808 257.502 365.734 258.361C365.55 260.153 365.292 262.712 364.976 265.929V266.121L364.801 266.03L354.697 260.703L354.938 260.636L349.478 269.872L349.362 270.064L349.179 269.931L340.023 262.87H340.29L336.286 266.013L330.826 270.289L330.627 270.447L330.51 270.222L325.308 260.595L325.566 260.678L314.546 265.596L314.338 265.688V265.471L312.674 255.651L312.84 255.751L306.498 258.202L304.833 258.819L304.401 258.977L304.251 259.019C304.251 259.019 304.292 259.019 304.384 258.944L304.808 258.761L306.473 258.077L312.74 255.576L312.882 255.526V255.676C313.373 258.411 313.955 261.703 314.63 265.479L314.397 265.354L325.391 260.353L325.566 260.278L325.658 260.436C327.322 263.487 329.054 266.705 330.876 270.064L330.552 269.997L336.012 265.713L340.015 262.57L340.148 262.47L340.281 262.57L349.437 269.647L349.137 269.706L354.639 260.536L354.722 260.394L354.872 260.47L364.86 265.854L364.668 265.954L365.55 258.402C365.659 257.569 365.742 256.877 365.8 256.393C365.8 256.185 365.858 256.018 365.875 255.876C365.883 255.798 365.896 255.72 365.917 255.643Z" fill="#F5F5F5"/>
<path d="M374.007 264.929C374.002 265.011 373.988 265.092 373.965 265.171C373.915 265.354 373.857 265.588 373.79 265.88C373.616 266.521 373.383 267.438 373.075 268.605C372.434 271.006 371.502 274.44 370.353 278.75L370.303 278.917L370.153 278.842L358.409 273.207L358.642 273.14C355.638 277.425 352.308 282.184 348.754 287.269L348.605 287.478L348.43 287.294L338.958 277.641L336.961 275.616H337.227L324.426 283.66L324.243 283.777L324.135 283.593L317.227 271.373L317.443 271.456L304.276 275.999L304.151 276.041L304.109 275.916C302.861 272.298 301.87 269.422 301.188 267.43C300.863 266.463 300.605 265.704 300.431 265.171C300.347 264.929 300.289 264.738 300.239 264.588C300.212 264.524 300.195 264.456 300.189 264.387C300.226 264.447 300.254 264.512 300.272 264.579L300.497 265.146C300.689 265.679 300.963 266.421 301.329 267.38C302.037 269.364 303.069 272.223 304.367 275.833L304.201 275.749L317.318 271.139L317.46 271.089L317.535 271.223L324.484 283.41L324.193 283.335L336.994 275.274L337.135 275.182L337.26 275.307C337.921 275.985 338.586 276.661 339.258 277.333L348.754 286.994H348.43L358.368 272.898L358.451 272.773L358.592 272.84L370.295 278.558L370.103 278.65L372.95 268.539L373.732 265.83C373.824 265.546 373.89 265.313 373.949 265.138C373.96 265.066 373.979 264.996 374.007 264.929Z" fill="#F5F5F5"/>
<path d="M365.592 206.779C363.922 206.954 362.235 206.783 360.634 206.277C359.033 205.77 357.553 204.94 356.287 203.836C359.316 205.37 363.353 203.261 364.427 200.035C365.5 196.809 364.618 190.799 361.971 188.665C360.7 187.652 359.212 186.947 357.624 186.606C356.036 186.264 354.39 186.296 352.816 186.698C349.695 187.531 346.391 192.291 345.367 195.358L345.425 195.45C344.951 195.258 344.46 195.083 343.977 194.917C340.523 193.694 336.844 193.247 333.199 193.608C329.543 193.987 326.099 195.506 323.352 197.951L344.518 232.019C348.363 231.686 351.767 229.085 353.782 225.793C355.796 222.5 356.57 218.574 356.761 214.714C356.811 213.739 356.803 212.764 356.761 211.788L363.561 212.88C362.341 211.24 360.804 209.862 359.042 208.829C360.208 209.247 361.478 209.274 362.66 208.903C363.842 208.533 364.872 207.787 365.592 206.779Z" fill="#263238"/>
<path d="M338.858 259.653C341.621 259.594 344.253 258.462 346.197 256.496C348.142 254.53 349.247 251.883 349.279 249.116L349.77 206.728C349.795 205.882 349.497 205.058 348.938 204.423C348.378 203.789 347.599 203.391 346.757 203.311L328.879 198.784C323.144 198.184 319.349 205.236 318.983 210.988C318.583 217.382 318.342 225.201 319.099 229.977C320.622 239.563 327.963 240.814 327.963 240.814C327.963 240.814 327.963 244.523 327.963 249.066C327.97 250.481 328.257 251.881 328.809 253.183C329.361 254.486 330.166 255.665 331.178 256.653C332.19 257.641 333.388 258.417 334.702 258.936C336.016 259.455 337.421 259.707 338.833 259.678L338.858 259.653Z" fill="#FFBE9D"/>
<path d="M322.695 217.198C322.693 217.52 322.816 217.83 323.038 218.062C323.26 218.294 323.564 218.429 323.885 218.44C324.041 218.453 324.198 218.434 324.347 218.385C324.496 218.335 324.633 218.257 324.751 218.153C324.869 218.05 324.965 217.924 325.034 217.783C325.102 217.642 325.142 217.488 325.15 217.332C325.155 217.011 325.033 216.701 324.813 216.469C324.592 216.237 324.288 216.101 323.968 216.09C323.812 216.077 323.654 216.096 323.505 216.145C323.356 216.195 323.218 216.273 323.099 216.376C322.981 216.48 322.884 216.605 322.814 216.747C322.745 216.888 322.704 217.041 322.695 217.198Z" fill="#263238"/>
<path d="M320.647 215.056C320.797 215.223 321.729 214.531 323.053 214.531C324.376 214.531 325.342 215.198 325.483 215.039C325.625 214.881 325.4 214.673 324.975 214.364C324.402 213.972 323.723 213.763 323.028 213.764C322.339 213.762 321.669 213.981 321.114 214.389C320.739 214.698 320.647 214.989 320.647 215.056Z" fill="#263238"/>
<path d="M335.271 217.198C335.267 217.52 335.389 217.831 335.612 218.064C335.835 218.296 336.14 218.432 336.461 218.44C336.618 218.453 336.775 218.434 336.925 218.385C337.074 218.335 337.212 218.257 337.33 218.154C337.449 218.05 337.546 217.925 337.615 217.783C337.685 217.642 337.725 217.489 337.735 217.332C337.737 217.01 337.614 216.7 337.392 216.468C337.169 216.236 336.865 216.1 336.545 216.09C336.388 216.076 336.23 216.094 336.08 216.143C335.93 216.192 335.792 216.27 335.673 216.373C335.554 216.477 335.457 216.603 335.388 216.745C335.319 216.887 335.279 217.041 335.271 217.198Z" fill="#263238"/>
<path d="M333.673 215.306C333.823 215.464 334.755 214.781 336.078 214.781C337.402 214.781 338.367 215.448 338.509 215.281C338.65 215.114 338.425 214.923 338.001 214.614C337.429 214.218 336.749 214.009 336.053 214.014C335.366 214.01 334.695 214.226 334.139 214.631C333.731 214.948 333.598 215.231 333.673 215.306Z" fill="#263238"/>
<path d="M328.871 225.126C328.174 224.907 327.452 224.775 326.723 224.734C326.39 224.734 326.074 224.634 326.016 224.4C325.984 224.052 326.063 223.702 326.241 223.4L327.239 220.824C328.621 217.165 329.628 214.156 329.478 214.097C329.328 214.039 328.088 216.965 326.698 220.633L325.741 223.217C325.534 223.626 325.472 224.093 325.566 224.542C325.614 224.663 325.689 224.772 325.786 224.858C325.883 224.945 325.999 225.008 326.124 225.042C326.311 225.093 326.504 225.118 326.698 225.117C327.419 225.212 328.149 225.215 328.871 225.126Z" fill="#263238"/>
<path d="M327.963 240.789C332.473 240.858 336.913 239.672 340.789 237.363C340.789 237.363 337.676 243.948 328.088 243.048L327.963 240.789Z" fill="#EB996E"/>
<path d="M329.437 228.31C329.688 227.994 330.015 227.747 330.388 227.593C330.761 227.438 331.166 227.381 331.567 227.426C331.86 227.456 332.144 227.546 332.402 227.689C332.659 227.832 332.885 228.027 333.065 228.26C333.243 228.48 333.348 228.749 333.368 229.031C333.387 229.312 333.319 229.593 333.174 229.835C332.961 230.072 332.683 230.241 332.375 230.32C332.067 230.398 331.742 230.384 331.442 230.277C330.829 230.05 330.264 229.708 329.778 229.269C329.629 229.164 329.501 229.031 329.403 228.877C329.355 228.804 329.329 228.718 329.329 228.631C329.329 228.543 329.355 228.458 329.403 228.385" fill="#EB996E"/>
<path d="M332.766 226.034C332.549 226.034 332.549 227.46 331.318 228.485C330.086 229.51 328.563 229.319 328.554 229.544C328.546 229.769 328.896 229.827 329.536 229.844C330.381 229.845 331.2 229.55 331.85 229.01C332.474 228.498 332.874 227.762 332.966 226.96C333.024 226.385 332.857 226.034 332.766 226.034Z" fill="#263238"/>
<path d="M333.074 212.989C333.207 213.347 334.522 213.18 336.078 213.364C337.635 213.547 338.883 213.972 339.083 213.656C339.175 213.497 338.958 213.164 338.459 212.822C337.783 212.395 337.019 212.127 336.224 212.039C335.43 211.951 334.626 212.045 333.873 212.314C333.307 212.539 333.015 212.822 333.074 212.989Z" fill="#263238"/>
<path d="M320.864 212.614C321.097 212.914 322.004 212.614 323.103 212.614C324.201 212.614 325.125 212.822 325.333 212.505C325.433 212.347 325.283 212.047 324.875 211.763C324.337 211.414 323.702 211.242 323.061 211.272C322.416 211.283 321.79 211.496 321.272 211.88C320.889 212.164 320.764 212.472 320.864 212.614Z" fill="#263238"/>
<path d="M348.705 218.649C349.093 218.439 349.53 218.34 349.971 218.362C350.411 218.384 350.836 218.527 351.202 218.774C352.086 219.291 352.766 220.098 353.124 221.059C353.483 222.02 353.499 223.076 353.17 224.048C352.842 225.019 352.188 225.847 351.319 226.392C350.451 226.936 349.421 227.163 348.405 227.035" fill="#FFBE9D"/>
<path d="M349.379 224.175C349.379 224.109 349.745 224.25 350.211 224.042C350.5 223.879 350.733 223.633 350.882 223.336C351.03 223.039 351.086 222.704 351.043 222.375C351.042 222.047 350.945 221.726 350.763 221.453C350.58 221.18 350.322 220.967 350.02 220.841C349.537 220.641 349.187 220.741 349.187 220.666C349.187 220.591 349.512 220.366 350.144 220.508C350.51 220.595 350.838 220.8 351.077 221.091C351.366 221.448 351.533 221.89 351.551 222.35C351.602 222.769 351.511 223.194 351.294 223.556C351.077 223.918 350.746 224.198 350.352 224.35C349.678 224.542 349.329 224.209 349.379 224.175Z" fill="#EB996E"/>
<path d="M351.992 226.118C351.992 226.118 352.159 226.209 352.433 226.426L353.607 227.36L357.768 230.878L357.91 230.994L357.793 231.136C356.254 232.986 354.539 235.304 352.616 237.721C352.175 238.271 351.743 238.805 351.318 239.305L350.96 239.722V239.172C350.794 235.271 350.652 231.811 350.577 229.327C350.577 228.152 350.527 227.168 350.511 226.41C350.478 226.055 350.478 225.697 350.511 225.343C350.594 225.689 350.639 226.044 350.644 226.401C350.694 227.16 350.76 228.135 350.844 229.319C350.993 231.819 351.177 235.245 351.368 239.155L350.993 239.022L352.275 237.454C354.198 235.037 355.929 232.736 357.51 230.894V231.153L353.474 227.518L352.358 226.526C352.222 226.404 352.099 226.267 351.992 226.118Z" fill="#455A64"/>
<path d="M332.624 194.592C330.277 194.613 327.938 194.87 325.641 195.358C323.332 195.854 321.228 197.04 319.607 198.759C318.809 199.626 318.239 200.678 317.949 201.82C317.658 202.963 317.656 204.16 317.942 205.303C318.269 206.435 318.974 207.42 319.939 208.094C320.904 208.767 322.071 209.089 323.244 209.004C325.009 208.771 326.698 207.462 328.405 207.979C330.111 208.496 330.901 210.438 332.566 210.746C334.231 211.055 335.654 209.579 337.302 209.429C339.133 209.271 340.714 210.771 341.53 212.422C342.346 214.072 342.654 215.923 343.469 217.565C343.695 218.112 344.034 218.604 344.465 219.01C344.896 219.415 345.407 219.724 345.966 219.916C346.495 220.025 347.041 220.006 347.561 219.861C348.08 219.716 348.558 219.449 348.954 219.082C349.736 218.335 350.334 217.416 350.702 216.398C351.567 214.269 351.928 211.968 351.758 209.675C351.587 207.383 350.89 205.161 349.719 203.183C348.549 201.206 346.938 199.526 345.012 198.276C343.086 197.025 340.897 196.238 338.617 195.975" fill="#263238"/>
<path d="M355.962 204.778C355.887 204.778 355.663 204.003 355.08 202.827C353.516 199.763 350.874 197.387 347.664 196.159C346.441 195.692 345.633 195.55 345.642 195.475C345.65 195.4 345.858 195.475 346.224 195.475C346.75 195.548 347.268 195.668 347.772 195.834C349.443 196.386 350.98 197.284 352.284 198.468C353.594 199.647 354.641 201.09 355.355 202.702C355.574 203.185 355.747 203.687 355.871 204.203C355.933 204.388 355.964 204.583 355.962 204.778Z" fill="#E8505B"/>
<path d="M363.287 190.732C362.539 190.429 361.768 190.19 360.981 190.015C359.067 189.69 357.1 189.982 355.363 190.849C353.64 191.75 352.154 193.047 351.027 194.633C350.136 195.842 349.72 196.684 349.653 196.651C349.693 196.43 349.772 196.218 349.886 196.025C350.141 195.482 350.436 194.958 350.769 194.458C351.865 192.767 353.383 191.391 355.172 190.465C356.97 189.555 359.026 189.287 360.998 189.707C361.594 189.834 362.169 190.048 362.704 190.34C363.095 190.557 363.303 190.682 363.287 190.732Z" fill="#455A64"/>
<path d="M354.081 201.994C354.188 202.648 354.188 203.315 354.081 203.969C353.914 205.557 353.51 207.111 352.883 208.579C352.259 210.045 351.417 211.409 350.386 212.622C349.984 213.147 349.498 213.601 348.946 213.964C350.375 212.279 351.576 210.412 352.516 208.412C353.312 206.349 353.838 204.192 354.081 201.994Z" fill="#455A64"/>
<path d="M354.356 202.202C354.466 202.37 354.545 202.556 354.589 202.752C354.762 203.265 354.887 203.792 354.963 204.328C355.234 206.11 355.146 207.928 354.706 209.676C354.266 211.423 353.482 213.065 352.4 214.506C352.076 214.94 351.714 215.345 351.318 215.715C351.035 215.981 350.877 216.115 350.852 216.09C350.827 216.065 351.393 215.439 352.15 214.322C353.13 212.873 353.853 211.266 354.289 209.571C354.707 207.871 354.834 206.112 354.664 204.369C354.522 203.036 354.281 202.219 354.356 202.202Z" fill="#455A64"/>
<path d="M379.542 204.386C378.625 204.676 377.846 205.292 377.353 206.119C376.861 206.946 376.689 207.926 376.87 208.872C377.051 209.817 377.573 210.663 378.337 211.249C379.1 211.834 380.052 212.118 381.011 212.046C381.97 211.975 382.869 211.553 383.537 210.861C384.206 210.169 384.597 209.255 384.637 208.293C384.676 207.331 384.361 206.387 383.752 205.643C383.142 204.898 382.281 204.403 381.331 204.253" fill="#EBEBEB"/>
<path d="M390.795 188.006C389.741 188.337 388.845 189.044 388.278 189.993C387.711 190.942 387.511 192.067 387.718 193.153C387.925 194.24 388.523 195.212 389.399 195.886C390.274 196.56 391.367 196.888 392.469 196.807C393.57 196.727 394.604 196.244 395.373 195.45C396.142 194.656 396.593 193.607 396.64 192.502C396.687 191.397 396.327 190.313 395.628 189.457C394.93 188.6 393.941 188.03 392.851 187.856" fill="#EBEBEB"/>
<path d="M414.824 115.818C407.333 115.185 399.684 116.868 394.515 122.387C391.948 125.178 390.033 128.507 388.91 132.132C387.787 135.757 387.484 139.586 388.023 143.343C380.016 146.677 375.655 156.88 378.76 165.016C381.864 173.152 391.935 177.77 400.108 174.877C401.957 179.567 404.993 183.693 408.919 186.849C412.845 190.004 417.524 192.081 422.496 192.874C427.467 193.666 432.559 193.148 437.269 191.369C441.979 189.59 446.145 186.612 449.356 182.73C457.205 184.505 466.002 184.397 472.661 179.762C479.319 175.127 482.249 164.974 477.222 158.673C486.269 156.464 490.863 145.152 488.183 136.216C485.503 127.28 477.463 120.878 468.89 117.252C463.222 114.851 456.148 113.601 451.312 117.41C449.367 114.413 446.734 111.925 443.634 110.154C440.534 108.382 437.056 107.378 433.49 107.226C429.924 107.073 426.373 107.776 423.133 109.277C419.893 110.777 417.059 113.031 414.865 115.851" fill="#F5F5F5"/>
<path d="M414.823 115.818C414.823 115.818 414.973 115.618 415.281 115.235C415.738 114.673 416.224 114.136 416.738 113.626C418.746 111.647 421.106 110.061 423.696 108.949C425.572 108.135 427.548 107.575 429.572 107.282C431.995 106.944 434.457 107.02 436.855 107.507C439.629 108.066 442.276 109.135 444.662 110.658C447.356 112.38 449.656 114.652 451.412 117.327H451.195C453.251 115.775 455.746 114.917 458.32 114.876C461.049 114.826 463.766 115.261 466.343 116.16C469.082 117.089 471.718 118.299 474.209 119.769C476.854 121.298 479.3 123.148 481.491 125.279C483.811 127.511 485.718 130.135 487.126 133.032C487.825 134.543 488.361 136.124 488.724 137.75C489.055 139.417 489.17 141.121 489.065 142.818C488.857 146.322 487.735 149.711 485.811 152.646C484.809 154.134 483.559 155.44 482.116 156.505C480.645 157.592 478.981 158.39 477.213 158.856L477.322 158.531C478.413 159.927 479.178 161.551 479.56 163.282C479.938 165.042 479.983 166.857 479.694 168.634C479.078 172.283 477.331 175.646 474.7 178.245C471.935 180.826 468.504 182.582 464.795 183.313C461.039 184.082 457.179 184.197 453.384 183.655C451.994 183.48 450.621 183.205 449.273 182.921L449.489 182.846C447.035 185.836 444.008 188.304 440.587 190.104C437.166 191.905 433.42 193.002 429.569 193.33C425.718 193.659 421.841 193.213 418.165 192.018C414.489 190.823 411.089 188.903 408.165 186.372C404.522 183.289 401.682 179.364 399.892 174.936L400.141 175.044C397.84 175.786 395.41 176.039 393.005 175.788C390.6 175.537 388.274 174.787 386.175 173.585C384.179 172.506 382.429 171.023 381.035 169.231C379.641 167.439 378.633 165.376 378.077 163.174C377.138 159.03 377.729 154.686 379.742 150.945C381.522 147.493 384.43 144.757 387.981 143.193L387.898 143.351C387.422 140.048 387.598 136.684 388.414 133.448C389.456 129.263 391.548 125.412 394.49 122.262C395.344 121.37 396.277 120.558 397.278 119.836C399.026 118.576 400.962 117.6 403.013 116.943C406.838 115.765 410.861 115.377 414.84 115.801C414.84 115.801 414.574 115.801 414.058 115.801C413.542 115.801 412.776 115.743 411.76 115.743C408.802 115.744 405.862 116.208 403.046 117.118C401.014 117.781 399.098 118.76 397.37 120.019C396.382 120.736 395.462 121.542 394.623 122.428C393.727 123.399 392.909 124.439 392.176 125.538C390.558 127.984 389.364 130.687 388.647 133.532C387.855 136.734 387.691 140.061 388.164 143.326V143.435L388.056 143.485C384.579 145.033 381.734 147.724 379.991 151.112C378.01 154.778 377.418 159.039 378.327 163.107C378.895 165.265 379.906 167.28 381.296 169.024C382.687 170.768 384.425 172.202 386.4 173.235C388.454 174.407 390.729 175.138 393.08 175.382C395.432 175.626 397.808 175.378 400.058 174.652L400.233 174.594L400.308 174.769C402.13 179.221 405.013 183.158 408.706 186.236C412.399 189.313 416.788 191.438 421.49 192.424C426.567 193.368 431.803 192.953 436.669 191.22C441.534 189.487 445.856 186.498 449.198 182.555L449.281 182.455H449.406C450.746 182.738 452.103 183.013 453.484 183.18C457.227 183.713 461.033 183.6 464.737 182.846C468.371 182.137 471.733 180.422 474.442 177.895C477.003 175.361 478.701 172.082 479.294 168.525C479.611 166.827 479.572 165.081 479.181 163.398C478.79 161.715 478.055 160.132 477.022 158.748L476.822 158.497L477.138 158.414C478.853 157.958 480.467 157.186 481.899 156.138C483.287 155.081 484.486 153.796 485.445 152.337C487.335 149.464 488.437 146.144 488.641 142.709C488.754 141.035 488.645 139.353 488.316 137.708C487.963 136.114 487.439 134.562 486.752 133.082C485.368 130.221 483.492 127.628 481.208 125.421C479.041 123.308 476.62 121.474 474.001 119.961C471.537 118.495 468.929 117.289 466.219 116.36C463.678 115.471 461.002 115.037 458.312 115.076C455.8 115.107 453.364 115.936 451.353 117.444L451.229 117.544L451.137 117.41C447.83 112.395 442.673 108.897 436.796 107.682C434.425 107.19 431.989 107.103 429.589 107.424C424.78 108.107 420.304 110.279 416.788 113.634C416.113 114.301 415.614 114.834 415.306 115.21C414.998 115.585 414.823 115.818 414.823 115.818Z" fill="#263238"/>
<path d="M466.302 141.801C466.302 142.159 451.537 142.451 433.334 142.451C415.131 142.451 400.375 142.159 400.375 141.801C400.375 141.442 415.131 141.151 433.334 141.151C451.537 141.151 466.302 141.442 466.302 141.801Z" fill="#455A64"/>
<path d="M466.302 149.003C466.302 149.361 451.537 149.653 433.334 149.653C415.131 149.653 400.375 149.361 400.375 149.003C400.375 148.645 415.131 148.344 433.334 148.344C451.537 148.344 466.302 148.603 466.302 149.003Z" fill="#455A64"/>
<path d="M466.302 156.13C466.302 156.489 451.537 156.78 433.334 156.78C415.131 156.78 400.375 156.489 400.375 156.13C400.375 155.772 415.131 155.48 433.334 155.48C451.537 155.48 466.302 155.772 466.302 156.13Z" fill="#455A64"/>
<path d="M466.302 163.291C466.302 163.649 451.537 163.941 433.334 163.941C415.131 163.941 400.375 163.649 400.375 163.291C400.375 162.932 415.131 162.64 433.334 162.64C451.537 162.64 466.302 162.932 466.302 163.291Z" fill="#455A64"/>
</g>
<defs>
<clipPath id="clip0_503_9">
<rect width="583" height="362" fill="white"/>
</clipPath>
</defs>
</svg>
