<svg width="34" height="34" viewBox="0 0 34 34" fill="none" xmlns="http://www.w3.org/2000/svg">
<g clip-path="url(#clip0_502_2)">
<path d="M34 28.1123V33.9995H28.1119L0 5.88718V0H5.88811L34 28.1123Z" fill="#F2F2F2"/>
<path d="M7.24811 33.9997C11.2511 33.9997 14.4962 30.733 14.4962 26.7033C14.4962 22.6737 11.2511 19.407 7.24811 19.407C3.24509 19.407 0 22.6737 0 26.7033C0 30.733 3.24509 33.9997 7.24811 33.9997Z" fill="#ED3A79"/>
<path d="M26.751 14.5927C30.7541 14.5927 33.9991 11.326 33.9991 7.29633C33.9991 3.26668 30.7541 0 26.751 0C22.748 0 19.5029 3.26668 19.5029 7.29633C19.5029 11.326 22.748 14.5927 26.751 14.5927Z" fill="#ED3A79"/>
</g>
<defs>
<clipPath id="clip0_502_2">
<rect width="34" height="34" fill="white"/>
</clipPath>
</defs>
</svg>
